<?xml version="1.0" encoding="UTF-8"?>
<svg xmlns="http://www.w3.org/2000/svg" style="display: none;">
  <!-- Game Icons -->
  <symbol id="icon-target" viewBox="0 0 24 24">
    <circle cx="12" cy="12" r="10" fill="none" stroke="currentColor" stroke-width="2"/>
    <circle cx="12" cy="12" r="6" fill="none" stroke="currentColor" stroke-width="2"/>
    <circle cx="12" cy="12" r="2" fill="currentColor"/>
  </symbol>
  
  <symbol id="icon-refresh" viewBox="0 0 24 24">
    <path d="M3 12a9 9 0 0 1 9-9 9.75 9.75 0 0 1 6.74 2.74L21 8" fill="none" stroke="currentColor" stroke-width="2" stroke-linecap="round" stroke-linejoin="round"/>
    <path d="M21 3v5h-5" fill="none" stroke="currentColor" stroke-width="2" stroke-linecap="round" stroke-linejoin="round"/>
    <path d="M21 12a9 9 0 0 1-9 9 9.75 9.75 0 0 1-6.74-2.74L3 16" fill="none" stroke="currentColor" stroke-width="2" stroke-linecap="round" stroke-linejoin="round"/>
    <path d="M3 21v-5h5" fill="none" stroke="currentColor" stroke-width="2" stroke-linecap="round" stroke-linejoin="round"/>
  </symbol>
  
  <symbol id="icon-print" viewBox="0 0 24 24">
    <polyline points="6,9 6,2 18,2 18,9" fill="none" stroke="currentColor" stroke-width="2" stroke-linecap="round" stroke-linejoin="round"/>
    <path d="M6 18H4a2 2 0 0 1-2-2v-5a2 2 0 0 1 2-2h16a2 2 0 0 1 2 2v5a2 2 0 0 1-2 2h-2" fill="none" stroke="currentColor" stroke-width="2" stroke-linecap="round" stroke-linejoin="round"/>
    <rect x="6" y="14" width="12" height="8" fill="none" stroke="currentColor" stroke-width="2" stroke-linecap="round" stroke-linejoin="round"/>
  </symbol>
  
  <symbol id="icon-moon" viewBox="0 0 24 24">
    <path d="M21 12.79A9 9 0 1 1 11.21 3 7 7 0 0 0 21 12.79z" fill="currentColor"/>
  </symbol>
  
  <symbol id="icon-sun" viewBox="0 0 24 24">
    <circle cx="12" cy="12" r="5" fill="none" stroke="currentColor" stroke-width="2"/>
    <line x1="12" y1="1" x2="12" y2="3" stroke="currentColor" stroke-width="2" stroke-linecap="round"/>
    <line x1="12" y1="21" x2="12" y2="23" stroke="currentColor" stroke-width="2" stroke-linecap="round"/>
    <line x1="4.22" y1="4.22" x2="5.64" y2="5.64" stroke="currentColor" stroke-width="2" stroke-linecap="round"/>
    <line x1="18.36" y1="18.36" x2="19.78" y2="19.78" stroke="currentColor" stroke-width="2" stroke-linecap="round"/>
    <line x1="1" y1="12" x2="3" y2="12" stroke="currentColor" stroke-width="2" stroke-linecap="round"/>
    <line x1="21" y1="12" x2="23" y2="12" stroke="currentColor" stroke-width="2" stroke-linecap="round"/>
    <line x1="4.22" y1="19.78" x2="5.64" y2="18.36" stroke="currentColor" stroke-width="2" stroke-linecap="round"/>
    <line x1="18.36" y1="5.64" x2="19.78" y2="4.22" stroke="currentColor" stroke-width="2" stroke-linecap="round"/>
  </symbol>
  
  <symbol id="icon-gamepad" viewBox="0 0 24 24">
    <line x1="6" y1="12" x2="18" y2="12" stroke="currentColor" stroke-width="2" stroke-linecap="round"/>
    <line x1="12" y1="6" x2="12" y2="18" stroke="currentColor" stroke-width="2" stroke-linecap="round"/>
    <rect x="3" y="8" width="18" height="8" rx="4" fill="none" stroke="currentColor" stroke-width="2"/>
  </symbol>
  
  <symbol id="icon-clipboard" viewBox="0 0 24 24">
    <path d="M16 4h2a2 2 0 0 1 2 2v14a2 2 0 0 1-2 2H6a2 2 0 0 1-2-2V6a2 2 0 0 1 2-2h2" fill="none" stroke="currentColor" stroke-width="2" stroke-linecap="round" stroke-linejoin="round"/>
    <rect x="8" y="2" width="8" height="4" rx="1" ry="1" fill="none" stroke="currentColor" stroke-width="2" stroke-linecap="round" stroke-linejoin="round"/>
  </symbol>
  
  <symbol id="icon-undo" viewBox="0 0 24 24">
    <path d="M3 7v6h6" fill="none" stroke="currentColor" stroke-width="2" stroke-linecap="round" stroke-linejoin="round"/>
    <path d="M21 17a9 9 0 0 0-9-9 9 9 0 0 0-6 2.3L3 13" fill="none" stroke="currentColor" stroke-width="2" stroke-linecap="round" stroke-linejoin="round"/>
  </symbol>
  
  <symbol id="icon-plus" viewBox="0 0 24 24">
    <line x1="12" y1="5" x2="12" y2="19" stroke="currentColor" stroke-width="2" stroke-linecap="round"/>
    <line x1="5" y1="12" x2="19" y2="12" stroke="currentColor" stroke-width="2" stroke-linecap="round"/>
  </symbol>
  
  <symbol id="icon-x" viewBox="0 0 24 24">
    <line x1="18" y1="6" x2="6" y2="18" stroke="currentColor" stroke-width="2" stroke-linecap="round"/>
    <line x1="6" y1="6" x2="18" y2="18" stroke="currentColor" stroke-width="2" stroke-linecap="round"/>
  </symbol>
  
  <symbol id="icon-trophy" viewBox="0 0 24 24">
    <line x1="8" y1="21" x2="16" y2="21" stroke="currentColor" stroke-width="2" stroke-linecap="round"/>
    <line x1="12" y1="17" x2="12" y2="21" stroke="currentColor" stroke-width="2" stroke-linecap="round"/>
    <path d="M7 4V2a1 1 0 0 1 1-1h8a1 1 0 0 1 1 1v2" fill="none" stroke="currentColor" stroke-width="2"/>
    <path d="M7 4h10l-1 7H8l-1-7z" fill="none" stroke="currentColor" stroke-width="2"/>
    <path d="M9 9h6" stroke="currentColor" stroke-width="2" stroke-linecap="round"/>
  </symbol>
  
  <symbol id="icon-star" viewBox="0 0 24 24">
    <polygon points="12,2 15.09,8.26 22,9.27 17,14.14 18.18,21.02 12,17.77 5.82,21.02 7,14.14 2,9.27 8.91,8.26" fill="currentColor" stroke="currentColor" stroke-width="1" stroke-linejoin="round"/>
  </symbol>
  
  <symbol id="icon-users" viewBox="0 0 24 24">
    <path d="M17 21v-2a4 4 0 0 0-4-4H5a4 4 0 0 0-4 4v2" fill="none" stroke="currentColor" stroke-width="2" stroke-linecap="round" stroke-linejoin="round"/>
    <circle cx="9" cy="7" r="4" fill="none" stroke="currentColor" stroke-width="2"/>
    <path d="M23 21v-2a4 4 0 0 0-3-3.87" fill="none" stroke="currentColor" stroke-width="2" stroke-linecap="round" stroke-linejoin="round"/>
    <path d="M16 3.13a4 4 0 0 1 0 7.75" fill="none" stroke="currentColor" stroke-width="2" stroke-linecap="round" stroke-linejoin="round"/>
  </symbol>
  
  <symbol id="icon-user" viewBox="0 0 24 24">
    <path d="M20 21v-2a4 4 0 0 0-4-4H8a4 4 0 0 0-4 4v2" fill="none" stroke="currentColor" stroke-width="2" stroke-linecap="round" stroke-linejoin="round"/>
    <circle cx="12" cy="7" r="4" fill="none" stroke="currentColor" stroke-width="2"/>
  </symbol>
  
  <symbol id="icon-minus" viewBox="0 0 24 24">
    <line x1="5" y1="12" x2="19" y2="12" stroke="currentColor" stroke-width="2" stroke-linecap="round"/>
  </symbol>
  
  <symbol id="icon-trash" viewBox="0 0 24 24">
    <polyline points="3,6 5,6 21,6" fill="none" stroke="currentColor" stroke-width="2" stroke-linecap="round" stroke-linejoin="round"/>
    <path d="M19 6v14a2 2 0 0 1-2 2H7a2 2 0 0 1-2-2V6m3 0V4a2 2 0 0 1 2-2h4a2 2 0 0 1 2 2v2" fill="none" stroke="currentColor" stroke-width="2" stroke-linecap="round" stroke-linejoin="round"/>
    <line x1="10" y1="11" x2="10" y2="17" stroke="currentColor" stroke-width="2" stroke-linecap="round"/>
    <line x1="14" y1="11" x2="14" y2="17" stroke="currentColor" stroke-width="2" stroke-linecap="round"/>
  </symbol>
  
  <!-- Confetti and celebration icons -->
  <symbol id="icon-confetti" viewBox="0 0 24 24">
    <path d="M2 12h20M12 2v20M6.34 6.34l11.32 11.32M6.34 17.66L17.66 6.34" stroke="currentColor" stroke-width="1" opacity="0.6"/>
    <circle cx="12" cy="12" r="2" fill="currentColor"/>
    <circle cx="6" cy="6" r="1" fill="currentColor"/>
    <circle cx="18" cy="6" r="1" fill="currentColor"/>
    <circle cx="6" cy="18" r="1" fill="currentColor"/>
    <circle cx="18" cy="18" r="1" fill="currentColor"/>
  </symbol>
  
  <symbol id="icon-celebration" viewBox="0 0 24 24">
    <path d="M12 3v18M3 12h18" stroke="currentColor" stroke-width="0.5" opacity="0.4"/>
    <circle cx="12" cy="3" r="1" fill="currentColor"/>
    <circle cx="12" cy="21" r="1" fill="currentColor"/>
    <circle cx="3" cy="12" r="1" fill="currentColor"/>
    <circle cx="21" cy="12" r="1" fill="currentColor"/>
    <circle cx="6" cy="6" r="0.5" fill="currentColor"/>
    <circle cx="18" cy="6" r="0.5" fill="currentColor"/>
    <circle cx="6" cy="18" r="0.5" fill="currentColor"/>
    <circle cx="18" cy="18" r="0.5" fill="currentColor"/>
  </symbol>
</svg>